<?xml version="1.0" standalone="no"?>
<!DOCTYPE svg PUBLIC "-//W3C//DTD SVG 20010904//EN"
 "http://www.w3.org/TR/2001/REC-SVG-20010904/DTD/svg10.dtd">
<svg version="1.0" xmlns="http://www.w3.org/2000/svg"
 width="260.000000pt" height="260.000000pt" viewBox="0 0 260.000000 260.000000"
 preserveAspectRatio="xMidYMid meet">
<metadata>
Created by potrace 1.14, written by Peter Selinger 2001-2017
</metadata>
<g transform="translate(0.000000,260.000000) scale(0.100000,-0.100000)"
fill="#000000" stroke="none">
<path d="M0 1300 l0 -1300 1300 0 1300 0 0 1300 0 1300 -1300 0 -1300 0 0
-1300z m1714 403 c-9 -21 -24 -58 -33 -83 -9 -25 -75 -181 -146 -347 l-130
-303 -52 0 c-29 0 -53 3 -53 8 0 4 58 144 129 312 71 168 142 338 158 377 l28
73 58 0 57 0 -16 -37z m-616 -18 c51 -22 80 -51 110 -115 36 -75 44 -241 16
-334 -23 -76 -89 -148 -149 -165 -113 -31 -223 4 -271 84 -71 122 -71 298 0
430 26 49 40 64 85 87 62 33 148 38 209 13z m-564 -263 c-95 -78 -113 -97
-102 -107 7 -7 59 -51 115 -98 l102 -84 -38 -37 -38 -37 -157 131 c-86 72
-156 133 -156 135 0 3 70 63 156 135 l157 131 38 -37 38 -37 -115 -95z m1571
37 c85 -72 155 -132 155 -134 0 -2 -70 -63 -156 -135 l-156 -132 -34 33 c-19
18 -34 36 -34 40 0 4 50 49 110 99 61 50 110 93 110 95 0 2 -49 45 -110 95
-60 50 -110 94 -110 98 0 6 61 72 67 72 2 0 73 -59 158 -131z"/>
<path d="M950 1578 c-14 -7 -35 -33 -47 -58 -19 -37 -23 -60 -23 -145 0 -85 4
-108 23 -145 26 -54 64 -75 114 -65 73 13 103 74 103 210 0 139 -31 202 -105
211 -23 3 -51 -1 -65 -8z"/>
</g>
</svg>
